
<svg xmlns="http://www.w3.org/2000/svg" style="display: none;">
    <defs>
        <symbol width="102" height="16" viewBox="0 0 102 16" fill="none">
          <path d="M101.071 7.64526C100.388 7.64526 99.7639 7.68467 99.1991 7.76349C98.6342 7.84231 98.0234 7.99994 97.3666 8.2364V15.7635H93.938V4.57136H96.4799L96.9922 5.89156C97.6753 5.33984 98.3452 4.94575 99.002 4.7093C99.6589 4.47284 100.349 4.35461 101.071 4.35461V7.64526Z" fill="#3470FF" />
          <path d="M92.2984 15.6453C91.878 15.7373 91.5036 15.803 91.1752 15.8424C90.8599 15.8818 90.4855 15.9015 90.052 15.9015C88.791 15.9015 87.9634 15.4943 87.5693 14.6798C87.0176 15.087 86.4658 15.3957 85.9141 15.6059C85.3624 15.8161 84.7581 15.9212 84.1013 15.9212C83.5102 15.9212 82.9781 15.7964 82.5052 15.5468C82.0323 15.2972 81.6645 14.9622 81.4018 14.5419C81.1391 14.1215 81.0077 13.6617 81.0077 13.1626C81.0077 12.3218 81.2179 11.6585 81.6382 11.1724C82.0717 10.6732 82.6497 10.2791 83.3722 9.99014C84.0947 9.68801 85.1916 9.32676 86.6629 8.9064L87.254 8.72906V8.65024C87.254 7.4417 86.7023 6.83743 85.5988 6.83743C85.0603 6.83743 84.4823 6.95566 83.8648 7.19211C83.2474 7.42856 82.5381 7.80952 81.7368 8.33497L81.0865 5.97043C81.9798 5.45812 82.8862 5.05746 83.8057 4.76846C84.7384 4.47946 85.7236 4.33496 86.7614 4.33496C88.0225 4.33496 88.988 4.67651 89.658 5.35959C90.3411 6.04268 90.6826 7.21181 90.6826 8.86699V12.6108C90.6826 12.8998 90.7417 13.11 90.8599 13.2414C90.9782 13.3596 91.1686 13.4187 91.4314 13.4187C91.681 13.4187 91.9305 13.3859 92.1801 13.3202L92.2984 15.6453ZM84.4363 12.7094C84.4363 12.9721 84.502 13.1626 84.6333 13.2808C84.7778 13.399 85.0011 13.4581 85.3033 13.4581C85.855 13.4581 86.5053 13.2217 87.254 12.7488V10.6601L86.9585 10.7586C85.9732 11.1133 85.3033 11.4286 84.9486 11.7044C84.607 11.9672 84.4363 12.3021 84.4363 12.7094Z" fill="#3470FF" />
          <path d="M75.1822 15.9999C73.5533 15.9999 72.174 15.6847 71.0443 15.0541C69.9146 14.4105 69.0673 13.5632 68.5024 12.5123C67.9507 11.4482 67.6748 10.2922 67.6748 9.04427C67.6748 7.80946 67.9638 6.6666 68.5418 5.61569C69.133 4.56479 70.0065 3.72406 71.1625 3.09352C72.3185 2.46298 73.711 2.14771 75.3399 2.14771C76.8637 2.14771 78.2036 2.44327 79.3596 3.03441L78.6502 5.51717C78.1642 5.26758 77.6584 5.07054 77.133 4.92604C76.6075 4.7684 76.0098 4.68958 75.3399 4.68958C74.486 4.68958 73.7438 4.88663 73.1133 5.28072C72.4959 5.66167 72.023 6.18712 71.6946 6.85707C71.3793 7.51389 71.2216 8.24952 71.2216 9.06397C71.2216 10.3513 71.5632 11.4088 72.2463 12.2364C72.9294 13.0508 73.908 13.4581 75.1822 13.4581C76.2726 13.4581 77.4483 13.1888 78.7093 12.6502L79.3793 15.0738C78.8407 15.3497 78.197 15.573 77.4483 15.7438C76.6995 15.9146 75.9442 15.9999 75.1822 15.9999Z" fill="#3470FF" />
          <path d="M61.7835 0H65.2121V15.7636H61.7835V0Z" fill="#101828" />
          <path d="M60.1439 15.6453C59.7235 15.7373 59.3491 15.803 59.0207 15.8424C58.7055 15.8818 58.3311 15.9015 57.8976 15.9015C56.6365 15.9015 55.8089 15.4943 55.4148 14.6798C54.8631 15.087 54.3114 15.3957 53.7596 15.6059C53.2079 15.8161 52.6036 15.9212 51.9468 15.9212C51.3557 15.9212 50.8237 15.7964 50.3508 15.5468C49.8779 15.2972 49.51 14.9622 49.2473 14.5419C48.9846 14.1215 48.8532 13.6617 48.8532 13.1626C48.8532 12.3218 49.0634 11.6585 49.4838 11.1724C49.9173 10.6732 50.4953 10.2791 51.2178 9.99014C51.9403 9.68801 53.0371 9.32676 54.5084 8.9064L55.0995 8.72906V8.65024C55.0995 7.4417 54.5478 6.83743 53.4444 6.83743C52.9058 6.83743 52.3278 6.95566 51.7104 7.19211C51.093 7.42856 50.3836 7.80952 49.5823 8.33497L48.932 5.97043C49.8253 5.45812 50.7317 5.05746 51.6513 4.76846C52.5839 4.47946 53.5692 4.33496 54.6069 4.33496C55.868 4.33496 56.8335 4.67651 57.5035 5.35959C58.1866 6.04268 58.5281 7.21181 58.5281 8.86699V12.6108C58.5281 12.8998 58.5872 13.11 58.7055 13.2414C58.8237 13.3596 59.0142 13.4187 59.2769 13.4187C59.5265 13.4187 59.7761 13.3859 60.0257 13.3202L60.1439 15.6453ZM52.2818 12.7094C52.2818 12.9721 52.3475 13.1626 52.4789 13.2808C52.6234 13.399 52.8467 13.4581 53.1488 13.4581C53.7005 13.4581 54.3508 13.2217 55.0995 12.7488V10.6601L54.804 10.7586C53.8188 11.1133 53.1488 11.4286 52.7941 11.7044C52.4526 11.9672 52.2818 12.3021 52.2818 12.7094Z" fill="#101828" />
          <path d="M47.6242 15.0345C47.2301 15.3104 46.7572 15.5271 46.2054 15.6848C45.6669 15.8293 45.1414 15.9015 44.6291 15.9015C43.2366 15.9015 42.1989 15.5994 41.5158 14.9951C40.8327 14.3777 40.4911 13.4976 40.4911 12.3547V6.99508H38.8163V5.55666L40.9246 4.70936L41.8705 1.69458H43.9197V4.57143H47.0724V6.99508H43.9197V11.5271C43.9197 12.2233 44.0314 12.7159 44.2547 13.0049C44.478 13.2939 44.813 13.4384 45.2596 13.4384C45.8376 13.4384 46.4485 13.2677 47.0921 12.9261L47.6242 15.0345Z" fill="#101828" />
          <path d="M33.1902 4.33496C34.6483 4.33496 35.6532 4.72248 36.205 5.49752C36.7698 6.27257 37.0523 7.38915 37.0523 8.84728V15.7636H33.6237V9.28078C33.6237 8.36124 33.512 7.72413 33.2887 7.36945C33.0785 7.01477 32.6647 6.83743 32.0473 6.83743C31.3774 6.83743 30.6943 7.06075 29.9981 7.50738V15.7636H26.5695V4.57142H29.1113L29.466 5.49752C30.7534 4.72248 31.9948 4.33496 33.1902 4.33496Z" fill="#101828" />
          <path d="M17.0284 10.798C17.094 11.7307 17.3239 12.4204 17.718 12.867C18.1121 13.3136 18.7164 13.5369 19.5308 13.5369C20.1351 13.5369 20.6934 13.4319 21.2057 13.2217C21.7312 12.9984 22.3289 12.67 22.9988 12.2365L23.9249 14.4039C23.2287 14.9688 22.539 15.376 21.856 15.6256C21.1729 15.8752 20.3913 16 19.5111 16C18.2106 16 17.1203 15.7504 16.2402 15.2512C15.36 14.7389 14.7032 14.0493 14.2697 13.1823C13.8494 12.3021 13.6392 11.3038 13.6392 10.1872C13.6392 8.41379 14.1384 6.99506 15.1367 5.93102C16.1351 4.86698 17.5932 4.33496 19.5111 4.33496C21.0349 4.33496 22.1909 4.74875 22.9791 5.57634C23.7804 6.39079 24.1877 7.55336 24.2008 9.06403C24.2008 9.65517 24.1154 10.2332 23.9446 10.798H17.0284ZM20.8707 8.57142C20.8839 8.4926 20.8904 8.38751 20.8904 8.25615C20.8773 7.71756 20.7328 7.31034 20.4569 7.03447C20.1811 6.74547 19.8001 6.60098 19.3141 6.60098C18.1581 6.60098 17.4356 7.25779 17.1466 8.57142H20.8707Z" fill="#101828" />
          <path d="M5.43843 10.8374H3.5468V15.7635H0V2.3645H5.35962C7.27752 2.3645 8.67654 2.69291 9.55667 3.34972C10.4368 3.9934 10.8769 5.01147 10.8769 6.40392C10.8769 8.21673 10.2135 9.43184 8.88672 10.0492L12.6503 15.7635H8.55174L5.43843 10.8374ZM3.5468 8.37436H5.35962C6.05584 8.37436 6.55502 8.22987 6.85716 7.94087C7.17243 7.65187 7.33006 7.20523 7.33006 6.60096C7.33006 5.97042 7.179 5.51722 6.87686 5.24135C6.57472 4.96549 6.06898 4.82756 5.35962 4.82756H3.5468V8.37436Z" fill="#101828" />
        </symbol>
        <symbol width="16" height="16" viewBox="0 0 16 16" fill="none">
          <path d="M7.9999 2.74805L7.2829 2.01105C5.5999 0.281049 2.5139 0.878049 1.39989 3.05305C0.876895 4.07605 0.758895 5.55305 1.71389 7.43805C2.63389 9.25305 4.5479 11.427 7.9999 13.795C11.4519 11.427 13.3649 9.25305 14.2859 7.43805C15.2409 5.55205 15.1239 4.07605 14.5999 3.05305C13.4859 0.878049 10.3999 0.280049 8.7169 2.01005L7.9999 2.74805ZM7.9999 15C-7.33311 4.86805 3.27889 -3.03995 7.82389 1.14305C7.88389 1.19838 7.94256 1.25538 7.9999 1.31405C8.05623 1.25501 8.11494 1.1983 8.17589 1.14405C12.7199 -3.04195 23.3329 4.86705 7.9999 15Z" fill="#F2F4F7" />
        </symbol>
        <symbol width="16" height="15" viewBox="0 0 16 15" fill="none">
          <path fill-rule="evenodd" clip-rule="evenodd" d="M7.99978 1.31405C12.4378 -3.24795 23.5338 4.73505 7.99978 15.0001C-7.53422 4.73605 3.56178 -3.24795 7.99978 1.31405Z" fill="#3470FF" />
        </symbol>
        <symbol width="16" height="16" viewBox="0 0 16 16" fill="none">
          <path fill-rule="evenodd" clip-rule="evenodd" d="M1.14689 4.14689C1.19334 4.10033 1.24852 4.06339 1.30926 4.03818C1.37001 4.01297 1.43513 4 1.50089 4C1.56666 4 1.63178 4.01297 1.69253 4.03818C1.75327 4.06339 1.80845 4.10033 1.85489 4.14689L7.50089 9.79389L13.1469 4.14689C13.1934 4.10041 13.2486 4.06353 13.3093 4.03837C13.37 4.01321 13.4352 4.00026 13.5009 4.00026C13.5666 4.00026 13.6317 4.01321 13.6925 4.03837C13.7532 4.06353 13.8084 4.10041 13.8549 4.14689C13.9014 4.19338 13.9383 4.24857 13.9634 4.30931C13.9886 4.37005 14.0015 4.43515 14.0015 4.50089C14.0015 4.56664 13.9886 4.63174 13.9634 4.69248C13.9383 4.75322 13.9014 4.80841 13.8549 4.85489L7.85489 10.8549C7.80845 10.9015 7.75327 10.9384 7.69253 10.9636C7.63178 10.9888 7.56666 11.0018 7.50089 11.0018C7.43513 11.0018 7.37001 10.9888 7.30926 10.9636C7.24852 10.9384 7.19334 10.9015 7.14689 10.8549L1.14689 4.85489C1.10033 4.80845 1.06339 4.75327 1.03818 4.69253C1.01297 4.63178 1 4.56666 1 4.50089C1 4.43513 1.01297 4.37001 1.03818 4.30926C1.06339 4.24851 1.10033 4.19334 1.14689 4.14689Z" fill="#101828" />
        </symbol>
        <symbol width="16" height="16" viewBox="0 0 16 16" fill="none">
          <path fill-rule="evenodd" clip-rule="evenodd" d="M7.14663 4.14689C7.19308 4.10033 7.24825 4.06339 7.309 4.03818C7.36974 4.01297 7.43486 4 7.50063 4C7.5664 4 7.63152 4.01297 7.69226 4.03818C7.75301 4.06339 7.80819 4.10033 7.85463 4.14689L13.8546 10.1469C13.9485 10.2408 14.0013 10.3681 14.0013 10.5009C14.0013 10.6337 13.9485 10.761 13.8546 10.8549C13.7607 10.9488 13.6334 11.0015 13.5006 11.0015C13.3679 11.0015 13.2405 10.9488 13.1466 10.8549L7.50063 5.20789L1.85463 10.8549C1.76075 10.9488 1.63341 11.0015 1.50063 11.0015C1.36786 11.0015 1.24052 10.9488 1.14663 10.8549C1.05274 10.761 1 10.6337 1 10.5009C1 10.3681 1.05274 10.2408 1.14663 10.1469L7.14663 4.14689Z" fill="#101828" />
        </symbol>
        <symbol width="16" height="16" viewBox="0 0 16 16" fill="none">
          <path d="M11.5306 8.38125C11.0394 9.37687 10.3738 10.3688 9.69313 11.2594C9.04677 12.0984 8.35642 12.9027 7.625 13.6687C6.89358 12.9027 6.20324 12.0984 5.55688 11.2594C4.87625 10.3688 4.21063 9.37687 3.71938 8.38125C3.2225 7.37531 2.9375 6.43313 2.9375 5.625C2.9375 4.3818 3.43136 3.18951 4.31044 2.31044C5.18951 1.43136 6.3818 0.9375 7.625 0.9375C8.8682 0.9375 10.0605 1.43136 10.9396 2.31044C11.8186 3.18951 12.3125 4.3818 12.3125 5.625C12.3125 6.43313 12.0266 7.37531 11.5306 8.38125ZM7.625 15C7.625 15 13.25 9.66938 13.25 5.625C13.25 4.13316 12.6574 2.70242 11.6025 1.64752C10.5476 0.592632 9.11684 0 7.625 0C6.13316 0 4.70242 0.592632 3.64752 1.64752C2.59263 2.70242 2 4.13316 2 5.625C2 9.66938 7.625 15 7.625 15Z" fill="#101828" />
          <path d="M7.625 7.5C7.12772 7.5 6.65081 7.30246 6.29917 6.95083C5.94754 6.59919 5.75 6.12228 5.75 5.625C5.75 5.12772 5.94754 4.65081 6.29917 4.29917C6.65081 3.94754 7.12772 3.75 7.625 3.75C8.12228 3.75 8.59919 3.94754 8.95082 4.29917C9.30246 4.65081 9.5 5.12772 9.5 5.625C9.5 6.12228 9.30246 6.59919 8.95082 6.95083C8.59919 7.30246 8.12228 7.5 7.625 7.5ZM7.625 8.4375C8.37092 8.4375 9.08629 8.14118 9.61374 7.61374C10.1412 7.08629 10.4375 6.37092 10.4375 5.625C10.4375 4.87908 10.1412 4.16371 9.61374 3.63626C9.08629 3.10882 8.37092 2.8125 7.625 2.8125C6.87908 2.8125 6.16371 3.10882 5.63626 3.63626C5.10882 4.16371 4.8125 4.87908 4.8125 5.625C4.8125 6.37092 5.10882 7.08629 5.63626 7.61374C6.16371 8.14118 6.87908 8.4375 7.625 8.4375Z" fill="#101828" />
        </symbol>
        <symbol width="16" height="16" viewBox="0 0 16 16" fill="none">
          <path d="M3.5 0C3.63261 0 3.75979 0.0526784 3.85355 0.146447C3.94732 0.240215 4 0.367392 4 0.5V1H12V0.5C12 0.367392 12.0527 0.240215 12.1464 0.146447C12.2402 0.0526784 12.3674 0 12.5 0C12.6326 0 12.7598 0.0526784 12.8536 0.146447C12.9473 0.240215 13 0.367392 13 0.5V1H14C14.5304 1 15.0391 1.21071 15.4142 1.58579C15.7893 1.96086 16 2.46957 16 3V14C16 14.5304 15.7893 15.0391 15.4142 15.4142C15.0391 15.7893 14.5304 16 14 16H2C1.46957 16 0.960859 15.7893 0.585786 15.4142C0.210714 15.0391 0 14.5304 0 14V3C0 2.46957 0.210714 1.96086 0.585786 1.58579C0.960859 1.21071 1.46957 1 2 1H3V0.5C3 0.367392 3.05268 0.240215 3.14645 0.146447C3.24021 0.0526784 3.36739 0 3.5 0ZM2 2C1.73478 2 1.48043 2.10536 1.29289 2.29289C1.10536 2.48043 1 2.73478 1 3V14C1 14.2652 1.10536 14.5196 1.29289 14.7071C1.48043 14.8946 1.73478 15 2 15H14C14.2652 15 14.5196 14.8946 14.7071 14.7071C14.8946 14.5196 15 14.2652 15 14V3C15 2.73478 14.8946 2.48043 14.7071 2.29289C14.5196 2.10536 14.2652 2 14 2H2Z" fill="#101828" />
          <path d="M2.5 4C2.5 3.86739 2.55268 3.74021 2.64645 3.64645C2.74021 3.55268 2.86739 3.5 3 3.5H13C13.1326 3.5 13.2598 3.55268 13.3536 3.64645C13.4473 3.74021 13.5 3.86739 13.5 4V5C13.5 5.13261 13.4473 5.25979 13.3536 5.35355C13.2598 5.44732 13.1326 5.5 13 5.5H3C2.86739 5.5 2.74021 5.44732 2.64645 5.35355C2.55268 5.25979 2.5 5.13261 2.5 5V4ZM11 7.5C11 7.36739 11.0527 7.24021 11.1464 7.14645C11.2402 7.05268 11.3674 7 11.5 7H12.5C12.6326 7 12.7598 7.05268 12.8536 7.14645C12.9473 7.24021 13 7.36739 13 7.5V8.5C13 8.63261 12.9473 8.75979 12.8536 8.85355C12.7598 8.94732 12.6326 9 12.5 9H11.5C11.3674 9 11.2402 8.94732 11.1464 8.85355C11.0527 8.75979 11 8.63261 11 8.5V7.5ZM8 7.5C8 7.36739 8.05268 7.24021 8.14645 7.14645C8.24021 7.05268 8.36739 7 8.5 7H9.5C9.63261 7 9.75979 7.05268 9.85355 7.14645C9.94732 7.24021 10 7.36739 10 7.5V8.5C10 8.63261 9.94732 8.75979 9.85355 8.85355C9.75979 8.94732 9.63261 9 9.5 9H8.5C8.36739 9 8.24021 8.94732 8.14645 8.85355C8.05268 8.75979 8 8.63261 8 8.5V7.5ZM3 10.5C3 10.3674 3.05268 10.2402 3.14645 10.1464C3.24021 10.0527 3.36739 10 3.5 10H4.5C4.63261 10 4.75979 10.0527 4.85355 10.1464C4.94732 10.2402 5 10.3674 5 10.5V11.5C5 11.6326 4.94732 11.7598 4.85355 11.8536C4.75979 11.9473 4.63261 12 4.5 12H3.5C3.36739 12 3.24021 11.9473 3.14645 11.8536C3.05268 11.7598 3 11.6326 3 11.5V10.5ZM6 10.5C6 10.3674 6.05268 10.2402 6.14645 10.1464C6.24021 10.0527 6.36739 10 6.5 10H7.5C7.63261 10 7.75979 10.0527 7.85355 10.1464C7.94732 10.2402 8 10.3674 8 10.5V11.5C8 11.6326 7.94732 11.7598 7.85355 11.8536C7.75979 11.9473 7.63261 12 7.5 12H6.5C6.36739 12 6.24021 11.9473 6.14645 11.8536C6.05268 11.7598 6 11.6326 6 11.5V10.5Z" fill="#101828" />
        </symbol>
        <symbol width="16" height="12" viewBox="0 0 16 12" fill="none">
          <path d="M4 7C4 7.26522 3.89464 7.51957 3.70711 7.70711C3.51957 7.89464 3.26522 8 3 8C2.73478 8 2.48043 7.89464 2.29289 7.70711C2.10536 7.51957 2 7.26522 2 7C2 6.73478 2.10536 6.48043 2.29289 6.29289C2.48043 6.10536 2.73478 6 3 6C3.26522 6 3.51957 6.10536 3.70711 6.29289C3.89464 6.48043 4 6.73478 4 7ZM14 7C14 7.26522 13.8946 7.51957 13.7071 7.70711C13.5196 7.89464 13.2652 8 13 8C12.7348 8 12.4804 7.89464 12.2929 7.70711C12.1054 7.51957 12 7.26522 12 7C12 6.73478 12.1054 6.48043 12.2929 6.29289C12.4804 6.10536 12.7348 6 13 6C13.2652 6 13.5196 6.10536 13.7071 6.29289C13.8946 6.48043 14 6.73478 14 7ZM6 6C5.73478 6 5.48043 6.10536 5.29289 6.29289C5.10536 6.48043 5 6.73478 5 7C5 7.26522 5.10536 7.51957 5.29289 7.70711C5.48043 7.89464 5.73478 8 6 8H10C10.2652 8 10.5196 7.89464 10.7071 7.70711C10.8946 7.51957 11 7.26522 11 7C11 6.73478 10.8946 6.48043 10.7071 6.29289C10.5196 6.10536 10.2652 6 10 6H6ZM4.862 2.276L3.906 4.19C3.86691 4.27065 3.84977 4.36018 3.8563 4.44957C3.86283 4.53896 3.8928 4.62505 3.94319 4.69917C3.99358 4.77329 4.06262 4.83282 4.14334 4.87176C4.22406 4.9107 4.31362 4.92769 4.403 4.921C5.313 4.848 6.753 4.751 8 4.751C9.247 4.751 10.688 4.848 11.597 4.921C11.6864 4.92769 11.7759 4.9107 11.8567 4.87176C11.9374 4.83282 12.0064 4.77329 12.0568 4.69917C12.1072 4.62505 12.1372 4.53896 12.1437 4.44957C12.1502 4.36018 12.1331 4.27065 12.094 4.19L11.138 2.277C11.0966 2.19387 11.0328 2.12391 10.9539 2.07499C10.8749 2.02606 10.7839 2.0001 10.691 2H5.309C5.21622 2 5.12527 2.02582 5.04633 2.07456C4.96739 2.12331 4.90356 2.19305 4.862 2.276Z" fill="#101828" />
          <path d="M2.52 1.515C2.7129 1.065 3.0337 0.681548 3.44257 0.412225C3.85144 0.142902 4.3304 -0.00043446 4.82 9.89209e-07H11.182C12.182 9.89209e-07 13.086 0.596001 13.48 1.515L14.272 3.363C14.347 3.538 14.482 3.682 14.652 3.767C15.152 4.017 15.507 4.482 15.617 5.029L15.952 6.708C15.9853 6.86933 16.0017 7.03267 16.001 7.198V7.611C16.001 8.425 15.611 9.154 15.001 9.608V11.5C15.001 11.6326 14.9483 11.7598 14.8546 11.8536C14.7608 11.9473 14.6336 12 14.501 12H12.501C12.3684 12 12.2412 11.9473 12.1474 11.8536C12.0537 11.7598 12.001 11.6326 12.001 11.5V10.162C10.709 10.21 9.256 10.25 8.001 10.25C6.746 10.25 5.293 10.21 4.001 10.162V11.5C4.001 11.6326 3.94832 11.7598 3.85455 11.8536C3.76078 11.9473 3.63361 12 3.501 12H1.501C1.36839 12 1.24121 11.9473 1.14745 11.8536C1.05368 11.7598 1.001 11.6326 1.001 11.5V9.608C0.390999 9.154 0.000999451 8.425 0.000999451 7.611V7.198C0.00116728 7.03345 0.0175802 6.86932 0.0499995 6.708L0.384999 5.028C0.494999 4.482 0.849999 4.016 1.349 3.767C1.52016 3.68215 1.65531 3.53884 1.73 3.363L2.522 1.515H2.52ZM4.82 1C4.5263 1.00002 4.23906 1.08626 3.99392 1.24803C3.74878 1.4098 3.55652 1.63997 3.441 1.91L2.649 3.757C2.48102 4.15006 2.17865 4.47051 1.796 4.661C1.68579 4.71563 1.58966 4.79493 1.51508 4.89275C1.44051 4.99056 1.38949 5.10426 1.366 5.225L1.03 6.904C1.01035 7.00077 1.0003 7.09925 0.999999 7.198V7.611C0.999999 8.407 1.62 9.059 2.408 9.095C3.963 9.165 6.194 9.25 8 9.25C9.806 9.25 12.037 9.166 13.592 9.095C13.9726 9.07647 14.3314 8.91185 14.5937 8.63542C14.8559 8.35899 15.0015 7.99205 15 7.611V7.198C15 7.09933 14.99 7.00133 14.97 6.904L14.635 5.224C14.6114 5.10344 14.5603 4.98994 14.4857 4.89231C14.4111 4.79468 14.3151 4.71553 14.205 4.661C13.8223 4.47051 13.52 4.15006 13.352 3.757L12.56 1.909C12.4443 1.639 12.2518 1.40893 12.0065 1.24734C11.7611 1.08574 11.4738 0.99974 11.18 1H4.82Z" fill="#101828" />
        </symbol>
        <symbol width="16" height="16" viewBox="0 0 16 16" fill="none">
          <path d="M3 2.5C3 2.36739 3.05268 2.24021 3.14645 2.14645C3.24021 2.05268 3.36739 2 3.5 2H8.5C8.63261 2 8.75979 2.05268 8.85355 2.14645C8.94732 2.24021 9 2.36739 9 2.5V7.5C9 7.63261 8.94732 7.75979 8.85355 7.85355C8.75979 7.94732 8.63261 8 8.5 8H3.5C3.36739 8 3.24021 7.94732 3.14645 7.85355C3.05268 7.75979 3 7.63261 3 7.5V2.5Z" fill="#101828" />
          <path d="M1 2C1 1.46957 1.21071 0.960859 1.58579 0.585786C1.96086 0.210714 2.46957 0 3 0L9 0C9.53043 0 10.0391 0.210714 10.4142 0.585786C10.7893 0.960859 11 1.46957 11 2V10C11.5304 10 12.0391 10.2107 12.4142 10.5858C12.7893 10.9609 13 11.4696 13 12V12.5C13 12.6326 13.0527 12.7598 13.1464 12.8536C13.2402 12.9473 13.3674 13 13.5 13C13.6326 13 13.7598 12.9473 13.8536 12.8536C13.9473 12.7598 14 12.6326 14 12.5V8H13.5C13.3674 8 13.2402 7.94732 13.1464 7.85355C13.0527 7.75979 13 7.63261 13 7.5V4.375C13 4.24239 13.0527 4.11521 13.1464 4.02145C13.2402 3.92768 13.3674 3.875 13.5 3.875H14.995C14.984 3.399 14.942 2.981 14.794 2.653C14.7148 2.46228 14.5767 2.30183 14.4 2.195C14.216 2.085 13.936 2 13.5 2C13.3674 2 13.2402 1.94732 13.1464 1.85355C13.0527 1.75979 13 1.63261 13 1.5C13 1.36739 13.0527 1.24021 13.1464 1.14645C13.2402 1.05268 13.3674 1 13.5 1C14.064 0.998667 14.5347 1.11067 14.912 1.336C15.295 1.564 15.546 1.887 15.706 2.243C16.001 2.898 16 3.708 16 4.324V7.499C16.0001 7.56474 15.9873 7.62987 15.9622 7.69065C15.9372 7.75143 15.9003 7.80666 15.8539 7.8532C15.8075 7.89974 15.7523 7.93665 15.6916 7.96184C15.6308 7.98703 15.5657 8 15.5 8H15V12.5C15 12.8978 14.842 13.2794 14.5607 13.5607C14.2794 13.842 13.8978 14 13.5 14C13.1022 14 12.7206 13.842 12.4393 13.5607C12.158 13.2794 12 12.8978 12 12.5V12C12 11.7348 11.8946 11.4804 11.7071 11.2929C11.5196 11.1054 11.2652 11 11 11V15H11.5C11.6326 15 11.7598 15.0527 11.8536 15.1464C11.9473 15.2402 12 15.3674 12 15.5C12 15.6326 11.9473 15.7598 11.8536 15.8536C11.7598 15.9473 11.6326 16 11.5 16H0.5C0.367392 16 0.240215 15.9473 0.146447 15.8536C0.0526784 15.7598 0 15.6326 0 15.5C0 15.3674 0.0526784 15.2402 0.146447 15.1464C0.240215 15.0527 0.367392 15 0.5 15H1V2ZM10 2C10 1.73478 9.89464 1.48043 9.70711 1.29289C9.51957 1.10536 9.26522 1 9 1H3C2.73478 1 2.48043 1.10536 2.29289 1.29289C2.10536 1.48043 2 1.73478 2 2V15H10V2Z" fill="#101828" />
        </symbol>
        <symbol width="16" height="16" viewBox="0 0 16 16" fill="none">
          <path d="M8 4.754C7.57373 4.754 7.15163 4.83796 6.75781 5.00108C6.36399 5.16421 6.00615 5.40331 5.70473 5.70473C5.40331 6.00615 5.16421 6.36398 5.00109 6.75781C4.83796 7.15163 4.754 7.57373 4.754 8C4.754 8.42627 4.83796 8.84837 5.00109 9.24219C5.16421 9.63601 5.40331 9.99385 5.70473 10.2953C6.00615 10.5967 6.36399 10.8358 6.75781 10.9989C7.15163 11.162 7.57373 11.246 8 11.246C8.86089 11.246 9.68653 10.904 10.2953 10.2953C10.904 9.68652 11.246 8.86089 11.246 8C11.246 7.1391 10.904 6.31347 10.2953 5.70473C9.68653 5.09599 8.86089 4.754 8 4.754ZM5.754 8C5.754 7.40432 5.99063 6.83304 6.41184 6.41184C6.83304 5.99063 7.40432 5.754 8 5.754C8.59568 5.754 9.16695 5.99063 9.58816 6.41184C10.0094 6.83304 10.246 7.40432 10.246 8C10.246 8.59567 10.0094 9.16695 9.58816 9.58816C9.16695 10.0094 8.59568 10.246 8 10.246C7.40432 10.246 6.83304 10.0094 6.41184 9.58816C5.99063 9.16695 5.754 8.59567 5.754 8Z" fill="#101828" />
          <path d="M9.796 1.34299C9.269 -0.447012 6.731 -0.447012 6.204 1.34299L6.11 1.66199C6.0732 1.78694 6.0089 1.90207 5.92182 1.99895C5.83474 2.09582 5.72708 2.17198 5.60674 2.22184C5.4864 2.2717 5.35643 2.294 5.22635 2.28711C5.09628 2.28021 4.96939 2.24429 4.855 2.18199L4.563 2.02199C2.923 1.12999 1.13 2.92399 2.023 4.56299L2.182 4.85499C2.24431 4.96938 2.28022 5.09627 2.28712 5.22634C2.29401 5.35642 2.27171 5.48639 2.22185 5.60673C2.17199 5.72707 2.09583 5.83472 1.99896 5.9218C1.90208 6.00889 1.78695 6.07318 1.662 6.10999L1.343 6.20399C-0.447 6.73099 -0.447 9.26899 1.343 9.79599L1.662 9.88999C1.78695 9.92679 1.90208 9.99109 1.99896 10.0782C2.09583 10.1653 2.17199 10.2729 2.22185 10.3932C2.27171 10.5136 2.29401 10.6436 2.28712 10.7736C2.28022 10.9037 2.24431 11.0306 2.182 11.145L2.022 11.437C1.13 13.077 2.923 14.871 4.563 13.977L4.855 13.818C4.96939 13.7557 5.09628 13.7198 5.22635 13.7129C5.35643 13.706 5.4864 13.7283 5.60674 13.7781C5.72708 13.828 5.83474 13.9042 5.92182 14.001C6.0089 14.0979 6.0732 14.213 6.11 14.338L6.204 14.657C6.731 16.447 9.269 16.447 9.796 14.657L9.89 14.338C9.9268 14.213 9.9911 14.0979 10.0782 14.001C10.1653 13.9042 10.2729 13.828 10.3933 13.7781C10.5136 13.7283 10.6436 13.706 10.7736 13.7129C10.9037 13.7198 11.0306 13.7557 11.145 13.818L11.437 13.978C13.077 14.871 14.871 13.076 13.977 11.437L13.818 11.145C13.7557 11.0306 13.7198 10.9037 13.7129 10.7736C13.706 10.6436 13.7283 10.5136 13.7781 10.3932C13.828 10.2729 13.9042 10.1653 14.001 10.0782C14.0979 9.99109 14.213 9.92679 14.338 9.88999L14.657 9.79599C16.447 9.26899 16.447 6.73099 14.657 6.20399L14.338 6.10999C14.213 6.07318 14.0979 6.00889 14.001 5.9218C13.9042 5.83472 13.828 5.72707 13.7781 5.60673C13.7283 5.48639 13.706 5.35642 13.7129 5.22634C13.7198 5.09627 13.7557 4.96938 13.818 4.85499L13.978 4.56299C14.871 2.92299 13.076 1.12999 11.437 2.02299L11.145 2.18199C11.0306 2.24429 10.9037 2.28021 10.7736 2.28711C10.6436 2.294 10.5136 2.2717 10.3933 2.22184C10.2729 2.17198 10.1653 2.09582 10.0782 1.99895C9.9911 1.90207 9.9268 1.78694 9.89 1.66199L9.796 1.34299ZM7.163 1.62599C7.409 0.790988 8.591 0.790988 8.837 1.62599L8.931 1.94499C9.01002 2.21307 9.14804 2.46008 9.33493 2.66789C9.52182 2.8757 9.75285 3.03905 10.0111 3.14597C10.2693 3.25288 10.5482 3.30066 10.8273 3.28578C11.1064 3.2709 11.3786 3.19375 11.624 3.05999L11.915 2.89999C12.679 2.48499 13.515 3.31999 13.099 4.08499L12.94 4.37699C12.8064 4.62242 12.7295 4.89462 12.7148 5.17364C12.7 5.45267 12.7479 5.73146 12.8549 5.98957C12.962 6.24769 13.1254 6.47859 13.3332 6.66536C13.541 6.85214 13.788 6.99005 14.056 7.06899L14.374 7.16299C15.209 7.40899 15.209 8.59099 14.374 8.83699L14.055 8.93099C13.7869 9.01001 13.5399 9.14802 13.3321 9.33491C13.1243 9.5218 12.9609 9.75283 12.854 10.0111C12.7471 10.2693 12.6993 10.5482 12.7142 10.8273C12.7291 11.1064 12.8062 11.3786 12.94 11.624L13.1 11.915C13.515 12.679 12.68 13.515 11.915 13.099L11.624 12.94C11.3785 12.8062 11.1062 12.7291 10.8271 12.7143C10.5479 12.6995 10.269 12.7474 10.0108 12.8544C9.75254 12.9614 9.52152 13.1249 9.33468 13.3328C9.14784 13.5407 9.00991 13.7878 8.931 14.056L8.837 14.374C8.591 15.209 7.409 15.209 7.163 14.374L7.069 14.055C6.98994 13.787 6.85195 13.5402 6.66513 13.3325C6.47831 13.1248 6.24739 12.9615 5.98929 12.8546C5.73119 12.7477 5.45244 12.6999 5.17347 12.7146C4.8945 12.7294 4.62236 12.8064 4.377 12.94L4.085 13.1C3.321 13.515 2.485 12.68 2.901 11.915L3.06 11.624C3.19395 11.3785 3.27125 11.1062 3.28623 10.827C3.3012 10.5478 3.25347 10.2688 3.14654 10.0104C3.03961 9.75207 2.87619 9.52093 2.66828 9.33397C2.46036 9.14701 2.21323 9.00897 1.945 8.92999L1.626 8.83599C0.791 8.58999 0.791 7.40799 1.626 7.16199L1.945 7.06799C2.21281 6.9889 2.45954 6.85093 2.66714 6.66418C2.87475 6.47742 3.03796 6.24662 3.14485 5.98864C3.25174 5.73067 3.2996 5.45206 3.28492 5.17321C3.27023 4.89435 3.19339 4.62231 3.06 4.37699L2.9 4.08499C2.485 3.32099 3.32 2.48499 4.085 2.90099L4.377 3.05999C4.62236 3.19356 4.8945 3.27056 5.17347 3.28534C5.45244 3.30012 5.73119 3.25231 5.98929 3.1454C6.24739 3.0385 6.47831 2.87522 6.66513 2.66751C6.85195 2.4598 6.98994 2.21293 7.069 1.94499L7.163 1.62599Z" fill="#101828" />
        </symbol>
        <symbol width="16" height="16" viewBox="0 0 16 16" fill="none">
          <path d="M8 15C6.14348 15 4.36301 14.2625 3.05025 12.9497C1.7375 11.637 1 9.85652 1 8C1 6.14348 1.7375 4.36301 3.05025 3.05025C4.36301 1.7375 6.14348 1 8 1C9.85652 1 11.637 1.7375 12.9497 3.05025C14.2625 4.36301 15 6.14348 15 8C15 9.85652 14.2625 11.637 12.9497 12.9497C11.637 14.2625 9.85652 15 8 15ZM8 16C10.1217 16 12.1566 15.1571 13.6569 13.6569C15.1571 12.1566 16 10.1217 16 8C16 5.87827 15.1571 3.84344 13.6569 2.34315C12.1566 0.842855 10.1217 0 8 0C5.87827 0 3.84344 0.842855 2.34315 2.34315C0.842855 3.84344 0 5.87827 0 8C0 10.1217 0.842855 12.1566 2.34315 13.6569C3.84344 15.1571 5.87827 16 8 16Z" fill="#101828" />
          <path d="M10.97 4.97001L10.95 4.99201L7.477 9.41701L5.384 7.32301C5.24182 7.19053 5.05378 7.1184 4.85948 7.12183C4.66518 7.12526 4.47979 7.20397 4.34238 7.34138C4.20496 7.4788 4.12625 7.66418 4.12282 7.85848C4.1194 8.05278 4.19152 8.24083 4.324 8.38301L6.97 11.03C7.04128 11.1012 7.12616 11.1572 7.21958 11.1949C7.313 11.2325 7.41305 11.2509 7.51374 11.2491C7.61444 11.2472 7.71373 11.2251 7.8057 11.184C7.89766 11.1429 7.9804 11.0838 8.049 11.01L12.041 6.02001C12.1769 5.87734 12.2512 5.6869 12.2479 5.48987C12.2445 5.29285 12.1638 5.10505 12.0231 4.9671C11.8823 4.82915 11.693 4.75211 11.4959 4.75266C11.2989 4.7532 11.1099 4.83128 10.97 4.97001Z" fill="#101828" />
        </symbol>
    </defs>
</svg>